<?xml version="1.0" standalone="no"?>
<!DOCTYPE svg PUBLIC "-//W3C//DTD SVG 20010904//EN"
 "http://www.w3.org/TR/2001/REC-SVG-20010904/DTD/svg10.dtd">
<svg version="1.0" xmlns="http://www.w3.org/2000/svg"
 width="600.000000pt" height="600.000000pt" viewBox="0 0 600.000000 600.000000"
 preserveAspectRatio="xMidYMid meet">
<g transform="translate(0.000000,600.000000) scale(0.050000,-0.050000)"
fill="#000000" stroke="none">
<path d="M5300 11957 c-2429 -247 -4561 -2137 -5131 -4550 -108 -456 -182
-1152 -141 -1318 17 -64 51 -35 52 44 0 24 10 47 22 51 12 4 27 50 33 102 5
52 18 94 28 94 9 0 17 26 17 59 0 32 8 80 18 106 10 26 28 128 40 226 75 614
365 1463 704 2060 92 163 165 306 161 318 -3 11 0 14 8 7 8 -8 56 46 108 120
421 608 881 1072 1486 1500 97 68 180 124 185 124 5 0 79 41 164 92 622 368
1275 599 2066 729 405 67 810 160 778 180 -14 9 -10 18 12 26 130 50 -235 68
-610 30z"/>
<path d="M5969 11962 c7 -11 57 -19 113 -19 113 1 163 -22 56 -25 -59 -2 -54
-6 42 -28 70 -16 92 -27 60 -29 -70 -6 119 -47 560 -122 1125 -191 1921 -526
2775 -1168 102 -77 185 -149 185 -160 0 -12 9 -7 20 9 14 22 19 23 20 4 0 -32
583 -614 607 -607 10 2 13 -9 6 -25 -8 -21 -2 -26 21 -18 20 8 28 5 20 -8 -17
-27 95 -170 117 -150 8 8 10 4 3 -7 -6 -12 38 -89 98 -170 61 -82 129 -178
151 -214 22 -36 46 -62 54 -57 7 4 26 -6 42 -24 26 -28 26 -30 -7 -17 -36 13
-36 12 0 -42 407 -614 663 -1320 837 -2305 26 -148 58 -297 71 -330 13 -33 27
-91 32 -129 5 -37 14 -73 21 -80 7 -6 8 9 2 34 -6 25 -3 45 7 45 10 0 18 -19
18 -41 0 -26 8 -36 23 -27 13 8 18 5 10 -7 -12 -19 40 -80 55 -63 16 20 -32
594 -70 818 -424 2536 -2445 4529 -4998 4930 -240 38 -970 62 -951 32z"/>
<path d="M3240 9893 c0 -10 -22 -13 -49 -8 -26 5 -60 0 -75 -10 -19 -14 -17
-16 9 -8 19 7 35 4 35 -5 0 -15 -43 -42 -80 -51 -38 -9 -100 -66 -100 -92 0
-17 -14 -49 -30 -70 -30 -38 -30 -38 -17 1 7 22 7 34 -1 27 -20 -17 -26 -3137
-6 -3137 9 0 29 -31 45 -69 16 -37 44 -80 64 -95 19 -15 45 -44 58 -66 16 -29
39 -38 85 -34 36 4 62 -3 62 -16 0 -12 8 -18 17 -12 9 6 538 12 1175 14 637 2
1147 7 1133 12 -37 14 -30 46 10 47 51 0 156 103 182 179 32 91 33 3053 1
3159 -16 52 -48 91 -110 132 -48 33 -87 69 -88 82 0 25 -59 54 -76 37 -6 -5 0
-10 14 -10 13 0 19 -9 12 -20 -7 -12 -23 -14 -36 -5 -34 21 -2234 39 -2234 18z
m2317 -139 c147 -81 142 -25 143 -1680 0 -1452 -1 -1477 -41 -1556 -83 -163
-57 -160 -1337 -153 -1255 6 -1168 -5 -1277 155 l-45 66 0 1488 c0 1601 -4
1540 103 1640 89 83 109 84 1267 80 1040 -4 1125 -7 1187 -40z"/>
<path d="M3830 8909 c-77 -40 -152 -110 -139 -131 5 -8 1 -21 -11 -28 -11 -7
-20 -30 -20 -52 0 -22 9 -35 20 -28 11 7 14 -1 8 -19 -7 -17 -2 -31 10 -31 12
0 22 -18 22 -41 0 -51 137 -118 243 -119 113 0 115 -10 130 -538 15 -543 20
-563 168 -648 83 -48 148 -38 235 36 116 97 124 140 124 643 1 527 -7 502 166
531 73 12 128 29 122 39 -6 9 0 17 12 17 39 0 119 109 119 163 1 63 -79 166
-160 208 -86 44 -963 42 -1049 -2z m1066 -198 l6 -71 -231 0 -231 0 0 -625 0
-625 -90 0 -90 0 0 625 0 625 -227 0 -227 0 6 75 c3 41 6 75 7 75 0 0 242 -2
536 -4 l535 -4 6 -71z"/>
<path d="M6547 9895 c13 -8 -1 -15 -32 -15 -30 0 -55 -9 -55 -20 0 -11 -10
-20 -22 -20 -36 0 -139 -82 -127 -101 6 -10 -3 -13 -20 -7 -17 7 -32 2 -33
-10 -6 -52 -9 -59 -23 -74 -30 -29 -18 -3104 12 -3132 15 -13 23 -39 19 -56
-10 -39 81 -108 214 -160 118 -47 2071 -62 2308 -19 149 28 281 146 259 234
l-13 55 38 -46 38 -46 3 76 c2 57 -1 66 -13 36 -24 -58 -23 2980 1 3046 l19
54 -42 -50 -43 -50 15 68 c10 47 8 63 -8 53 -12 -7 -22 -4 -22 8 0 28 -74 101
-103 101 -13 0 -18 6 -10 14 24 24 -135 67 -204 55 -37 -6 -62 -4 -57 5 6 9
-470 16 -1056 16 -586 0 -1056 -7 -1043 -15z m2286 -128 c38 -18 91 -65 118
-105 l49 -71 0 -1508 c0 -1478 -1 -1510 -40 -1574 -91 -146 -22 -138 -1270
-145 -1257 -6 -1237 -8 -1330 131 l-50 75 -7 1340 c-8 1793 -7 1807 204 1868
125 36 2248 26 2326 -11z"/>
<path d="M7130 8913 c-83 -38 -155 -121 -155 -179 0 -86 47 -202 69 -171 15
21 17 19 8 -8 -10 -34 114 -290 155 -318 10 -7 13 -28 6 -46 -7 -18 -6 -29 3
-24 8 6 53 -61 99 -149 46 -87 73 -158 60 -158 -17 0 -17 -6 1 -24 15 -15 24
-93 24 -213 0 -335 224 -496 415 -298 87 91 105 151 105 357 0 125 10 199 31
241 18 33 27 74 21 90 -6 16 -3 24 6 18 36 -22 361 600 362 690 0 61 -125 190
-202 209 -91 22 -276 -86 -280 -163 -1 -25 -5 -28 -12 -9 -7 17 -40 -18 -89
-95 -91 -143 -117 -150 -180 -48 -25 41 -52 78 -60 81 -8 4 -10 18 -5 32 32
83 -278 232 -382 185z m173 -150 c7 -7 86 -159 176 -338 89 -179 169 -325 177
-324 8 1 91 154 184 340 l170 338 73 1 c41 0 89 6 107 13 52 20 39 -8 -216
-468 l-236 -426 6 -248 6 -248 -95 -6 -95 -7 0 262 0 262 -147 268 c-81 148
-189 342 -240 433 -51 90 -93 167 -93 171 0 12 209 -9 223 -23z"/>
<path d="M59 5892 c11 -29 12 -55 2 -62 -10 -6 -23 10 -29 35 -24 108 10 -595
39 -785 420 -2785 2795 -4935 5596 -5066 116 -5 131 -2 101 20 -20 14 -27 27
-17 27 11 1 -2 10 -28 20 -31 13 -43 30 -35 50 6 18 3 26 -8 19 -20 -12 -166
21 -225 52 -19 10 -59 18 -90 18 -466 2 -1712 428 -2301 787 -191 116 -215
128 -194 93 7 -11 -2 -14 -21 -7 -20 8 -24 18 -11 26 11 7 -52 60 -140 119
-311 206 -989 803 -1074 946 -22 39 -37 48 -48 31 -10 -17 -15 -12 -16 15 0
22 -20 63 -45 90 -483 531 -940 1454 -1163 2350 -68 276 -78 322 -144 720 -18
110 -43 212 -55 227 -12 15 -19 60 -16 100 4 57 0 67 -17 43 -18 -23 -21 -14
-15 44 3 40 0 69 -9 63 -9 -5 -16 4 -16 21 0 16 -9 35 -20 42 -13 8 -13 -5 -1
-38z"/>
<path d="M11949 5785 c-11 -8 -41 -49 -65 -91 -46 -79 -60 -127 -22 -74 18 25
20 24 10 -7 -7 -20 -12 -47 -12 -60 0 -13 -9 -10 -20 7 -11 17 -20 25 -20 20
-2 -78 -218 -1088 -270 -1262 -285 -962 -835 -1850 -1571 -2534 -118 -110
-207 -209 -203 -223 5 -15 0 -21 -13 -13 -11 7 -78 -32 -147 -88 -752 -607
-1836 -1076 -2846 -1229 -253 -39 -461 -92 -430 -111 17 -10 4 -20 -38 -29
-34 -8 -57 -23 -51 -33 6 -10 2 -18 -10 -18 -11 0 -21 -7 -21 -15 0 -97 1207
113 1759 306 2219 773 3881 2915 3992 5146 6 117 15 238 19 268 9 55 -3 67
-41 40z"/>
<path d="M3347 5736 c13 -8 -23 -10 -79 -3 -95 11 -103 9 -114 -35 -10 -38
-18 -42 -37 -23 -27 27 -137 -72 -137 -122 0 -14 -14 -43 -30 -64 -30 -38 -30
-38 -17 1 7 22 7 34 -1 27 -25 -22 -25 -3159 1 -3149 31 12 73 -82 44 -100
-12 -8 17 -31 65 -54 73 -33 82 -42 49 -53 -37 -14 -37 -14 0 -29 22 -8 41 -5
45 7 4 12 20 8 39 -11 24 -24 53 -29 113 -20 45 7 72 6 59 -3 -35 -23 2071 -8
2114 16 24 12 41 12 49 -1 7 -11 -3 -20 -22 -20 -19 0 -30 -5 -24 -11 19 -18
116 14 117 38 0 13 35 50 78 83 124 97 121 57 121 1714 0 1722 3 1694 -195
1748 -25 7 -45 20 -45 30 0 10 -61 19 -135 20 -102 2 -120 6 -75 17 33 8 -405
14 -973 13 -568 -1 -1022 -9 -1010 -16z m2208 -141 c151 -83 145 -14 145
-1680 0 -1662 7 -1577 -142 -1665 -66 -39 -104 -40 -1212 -40 -1284 0 -1192
-11 -1301 150 l-45 66 0 1488 c0 1608 -4 1539 107 1643 82 77 132 80 1283 76
1011 -3 1105 -6 1165 -38z"/>
<path d="M4133 4768 c-123 -38 -253 -123 -255 -166 -1 -22 -4 -24 -12 -6 -11
29 -107 -112 -173 -256 -54 -117 -65 -708 -14 -740 17 -10 24 -24 16 -32 -25
-25 110 -249 194 -322 254 -221 663 -251 945 -68 171 110 206 193 206 478 l0
221 -70 92 c-79 103 -82 116 -40 151 17 14 27 30 22 35 -5 4 9 26 30 47 52 52
32 258 -26 258 -9 0 -16 14 -16 31 0 191 -518 368 -807 277z m429 -151 c142
-42 255 -172 307 -352 13 -42 8 -45 -85 -45 -91 0 -101 5 -113 52 -60 241
-441 301 -587 93 -156 -223 -121 -763 60 -915 130 -110 531 -103 536 9 1 6 3
81 6 166 l5 155 -166 0 -165 0 0 75 0 75 255 -4 255 -4 6 -258 5 -258 -94 -73
c-240 -187 -657 -147 -845 81 -202 246 -189 846 25 1084 112 124 392 180 595
119z m-59 -398 c78 -82 84 -119 21 -119 -84 0 -181 -46 -259 -122 l-85 -83 0
124 c0 270 162 370 323 200z m-163 -603 c0 -7 -9 -19 -20 -26 -32 -20 -120 83
-120 140 0 52 1 51 70 -24 38 -42 70 -82 70 -90z"/>
<path d="M6660 5738 c51 -9 30 -13 -75 -15 -80 -2 -145 -10 -145 -18 0 -8 -40
-42 -88 -75 -136 -92 -132 -36 -132 -1696 0 -1576 7 -1707 84 -1683 24 8 35 3
32 -14 -4 -15 23 -40 59 -57 63 -30 93 -70 35 -47 -16 6 -30 1 -30 -11 0 -15
29 -18 85 -11 47 7 75 5 62 -4 -13 -10 466 -17 1064 -17 598 0 1072 7 1053 15
-19 9 2 12 51 7 47 -4 81 -2 77 5 -4 7 19 15 52 17 90 7 220 149 205 222 -10
42 -7 47 9 24 25 -34 62 3 60 60 0 20 -7 16 -18 -10 -24 -57 -23 2978 1 3046
l19 54 -43 -50 -43 -50 14 57 c16 65 -30 118 -143 166 -36 15 -65 36 -65 46 0
10 -47 23 -105 30 -142 16 -2163 24 -2075 9z m2193 -143 c156 -85 147 15 147
-1678 0 -1657 8 -1540 -118 -1651 -75 -67 -121 -69 -1296 -62 -1206 7 -1125
-3 -1235 144 -41 54 -41 71 -41 1568 l0 1514 50 75 c90 134 76 133 1320 129
1009 -4 1116 -7 1173 -39z"/>
<path d="M7120 4743 c-160 -85 -160 -86 -160 -829 l0 -661 90 -86 c206 -198
430 -29 430 324 0 188 17 209 170 209 155 0 170 -20 170 -220 0 -103 7 -158
20 -150 12 7 20 -14 20 -51 0 -44 16 -76 53 -106 154 -123 221 -124 339 -4
l88 89 0 671 0 671 -55 62 c-75 84 -157 124 -222 108 -61 -15 -203 -145 -203
-185 0 -15 -9 -22 -20 -15 -13 8 -20 -43 -20 -139 0 -87 -8 -151 -20 -151 -11
0 -20 -13 -20 -30 0 -24 -29 -30 -138 -30 -159 0 -161 3 -162 216 0 237 -189
398 -360 307z m180 -414 l0 -309 349 0 350 0 5 305 6 305 90 0 90 0 0 -700 0
-700 -90 1 -90 0 -5 325 -6 324 -349 0 -350 0 0 -327 0 -326 -90 0 -90 0 0
702 0 703 90 2 90 3 0 -308z"/>
</g>
</svg>
